<svg id="Layer_1" data-name="Layer 1" xmlns="http://www.w3.org/2000/svg" xmlns:xlink="http://www.w3.org/1999/xlink" viewBox="0 0 119.06 119.86"><defs><style>.cls-1,.cls-9{fill:none;}.cls-2{clip-path:url(#clip-path);}.cls-3{fill:url(#linear-gradient);}.cls-4{fill:#61422a;}.cls-5{fill:#fbb03b;stroke:#e68d00;}.cls-5,.cls-9{stroke-linejoin:round;stroke-width:3px;}.cls-6{fill:#fff;}.cls-7{fill:url(#linear-gradient-2);}.cls-8{fill:#e68d00;}.cls-9{stroke:#000;stroke-linecap:round;}.cls-10{fill:#404040;}.cls-11{fill:url(#linear-gradient-3);}</style><clipPath id="clip-path" transform="translate(-8.59 -11.58)"><circle class="cls-1" cx="68.12" cy="67.66" r="65.26"/></clipPath><linearGradient id="linear-gradient" x1="68.13" y1="14.48" x2="68.13" y2="131.08" gradientTransform="matrix(1, 0, 0, -1, 0, 144.16)" gradientUnits="userSpaceOnUse"><stop offset="0.07" stop-color="#603813"/><stop offset="0.83" stop-color="#8c6239"/></linearGradient><linearGradient id="linear-gradient-2" x1="68.13" y1="35.26" x2="68.13" y2="108.84" gradientTransform="matrix(1, 0, 0, -1, 0, 144.16)" gradientUnits="userSpaceOnUse"><stop offset="0" stop-color="#e6a500"/><stop offset="0.08" stop-color="#eaac0d"/><stop offset="0.3" stop-color="#f3be2d"/><stop offset="0.52" stop-color="#facb44"/><stop offset="0.72" stop-color="#fed252"/><stop offset="0.9" stop-color="#ffd557"/></linearGradient><linearGradient id="linear-gradient-3" x1="68.13" y1="70.09" x2="68.13" y2="60.86" gradientTransform="matrix(1, 0, 0, -1, 0, 144.16)" gradientUnits="userSpaceOnUse"><stop offset="0.16" stop-color="#4d4d4d"/><stop offset="0.37" stop-color="#373737"/><stop offset="0.78" stop-color="#0f0f0f"/><stop offset="1"/></linearGradient></defs><g class="cls-2"><g id="Layer_2" data-name="Layer 2"><path class="cls-3" d="M68.05,129.68a113.63,113.63,0,0,1-18.8-9.5,55.59,55.59,0,0,1-11.94-11c-1.92-2.23-2.56-3-3.62-3a1.63,1.63,0,0,0-1.2.51,2.13,2.13,0,0,0-.51,1.64,6,6,0,0,1-.21,2A36.64,36.64,0,0,1,18.69,92a2.28,2.28,0,0,0-2.12-1.87,2.61,2.61,0,0,0-2.15,1.43,1.82,1.82,0,0,0-.2.45,4.91,4.91,0,0,1-1.4,2c-5.35-13.57.3-26.34,3-31.27a2.24,2.24,0,0,0,0-2.24,2.34,2.34,0,0,0-2-1.14,2.18,2.18,0,0,0-.67.1l-3,.88c.44-11.73,8.24-20.45,11.64-23.71a2.25,2.25,0,0,0,.59-2.33,2.31,2.31,0,0,0-1.89-1.57,12,12,0,0,1-2.76-.8C27,16.37,40.82,13.09,50.84,13.09A52,52,0,0,1,67.1,15.74a1.53,1.53,0,0,0,2.07,0,52.22,52.22,0,0,1,16.26-2.65c10,0,23.84,3.28,33.14,18.78a12,12,0,0,1-2.76.8,2.28,2.28,0,0,0-1.89,1.57,2.25,2.25,0,0,0,.59,2.33c3.4,3.26,11.2,12,11.64,23.71l-3-.88a2.53,2.53,0,0,0-.67-.1,2.35,2.35,0,0,0-2,1.15,2.24,2.24,0,0,0,0,2.24c2.73,4.93,8.38,17.71,3,31.27a5.14,5.14,0,0,1-1.43-2,2.35,2.35,0,0,0-.19-.39,2.6,2.6,0,0,0-2.14-1.41A2.27,2.27,0,0,0,117.57,92a36.61,36.61,0,0,1-13.14,18.4,5.39,5.39,0,0,1-.28-2.06,2.14,2.14,0,0,0-.51-1.62,1.67,1.67,0,0,0-1.21-.51c-1.05,0-1.76.8-3.67,3-2.54,2.87-6.8,7.67-12.53,11C78.21,124.82,70.17,128.67,68.05,129.68Z" transform="translate(-8.59 -11.58)"/><path class="cls-4" d="M85.42,14.58c13.33,0,23.7,5.54,30.86,16.46-.23.05-.46.1-.68.13a3.78,3.78,0,0,0-2.13,6.47c3.06,2.93,9.82,10.46,11,20.58l-.94-.27a4,4,0,0,0-1.09-.16,3.85,3.85,0,0,0-3.3,1.88,3.74,3.74,0,0,0-.05,3.73c2.43,4.4,7.29,15.28,3.9,27.18a4,4,0,0,0-3.32-2,3.73,3.73,0,0,0-3.56,2.94,34.45,34.45,0,0,1-10.53,15.91,3.25,3.25,0,0,0-.87-1.8,3.15,3.15,0,0,0-2.29-1c-1.72,0-2.69,1.08-4.79,3.46-2.48,2.8-6.64,7.49-12.16,10.71C78.12,123.13,70.74,126.73,68,128a112.55,112.55,0,0,1-17.93-9.12,54.72,54.72,0,0,1-11.62-10.75c-2.07-2.41-3-3.51-4.75-3.51a3.16,3.16,0,0,0-2.29,1,3.3,3.3,0,0,0-.86,1.74A34.45,34.45,0,0,1,20.13,91.55a3.73,3.73,0,0,0-3.56-2.94,4,4,0,0,0-3.31,2c-3.38-11.9,1.47-22.78,3.9-27.17a3.74,3.74,0,0,0-.05-3.73,3.84,3.84,0,0,0-3.3-1.88,3.64,3.64,0,0,0-1.09.16l-.94.27c1.19-10.12,8-17.65,11-20.58a3.78,3.78,0,0,0-2.13-6.47c-.23,0-.46-.08-.68-.13,7.16-10.93,17.53-16.47,30.86-16.47a51,51,0,0,1,15.52,2.48,2.91,2.91,0,0,0,1.77.58,3,3,0,0,0,1.77-.58,51,51,0,0,1,15.52-2.48M70.51,16.47h0m14.91-4.89A53.45,53.45,0,0,0,68.5,14.37a.85.85,0,0,0-.37.27.78.78,0,0,0-.37-.27,53.76,53.76,0,0,0-16.92-2.79c-11.21,0-25.39,3.84-34.86,20.24a.78.78,0,0,0,.36,1.09,14.41,14.41,0,0,0,3.91,1.24.77.77,0,0,1,.46,1.33C17.18,38.86,8.64,48.38,8.59,61.2a.82.82,0,0,0,.83.8.67.67,0,0,0,.24,0l3.89-1.14a1.09,1.09,0,0,1,.25,0,.79.79,0,0,1,.72,1.16c-2.63,4.75-9,18.74-2.76,33.4a.81.81,0,0,0,.76.48.89.89,0,0,0,.47-.14,6.81,6.81,0,0,0,2.65-3.26s0-.06,0-.08c.35-.54.65-.74.89-.74s.56.37.68.79A38.42,38.42,0,0,0,31.53,112a.85.85,0,0,0,.5.16.81.81,0,0,0,.72-.41,6.46,6.46,0,0,0,.71-3.55c0-.4,0-.58.21-.58,1.06,0,6.07,8.27,14.75,13.85a115.3,115.3,0,0,0,19.71,9.93h0S77.51,127,87,121.52c9-5.22,14.33-13.8,15.44-13.8.16,0,.23.16.21.54a6.4,6.4,0,0,0,.78,3.54.86.86,0,0,0,.75.4.92.92,0,0,0,.52-.17A38.46,38.46,0,0,0,119,92.38c.13-.42.36-.79.69-.79s.55.2.89.74c0,0,0,0,0,.08a6.76,6.76,0,0,0,2.65,3.26.81.81,0,0,0,.47.14.83.83,0,0,0,.76-.48c6.25-14.66-.14-28.65-2.76-33.4a.79.79,0,0,1,.72-1.16.77.77,0,0,1,.25,0L126.58,62a1,1,0,0,0,.24,0,.82.82,0,0,0,.83-.8c-.05-12.83-8.59-22.34-12.12-25.72a.78.78,0,0,1,.46-1.33,14.29,14.29,0,0,0,3.91-1.24.78.78,0,0,0,.36-1.09c-9.45-16.39-23.63-20.23-34.84-20.23Z" transform="translate(-8.59 -11.58)"/><circle class="cls-5" cx="32.99" cy="31.86" r="10.96"/><circle class="cls-6" cx="32.99" cy="31.86" r="6.25"/><circle class="cls-5" cx="86.09" cy="31.86" r="10.96"/><circle class="cls-6" cx="86.09" cy="31.86" r="6.25"/><path class="cls-7" d="M68.13,108.9C44.71,108.9,29.58,94.8,29.58,73c0-22.88,15.13-37.67,38.55-37.67S106.68,50.11,106.68,73C106.68,94.81,91.55,108.9,68.13,108.9Z" transform="translate(-8.59 -11.58)"/><path class="cls-8" d="M68.13,36.83c22.51,0,37.05,14.2,37.05,36.17,0,21.23-14.2,34.41-37.05,34.41s-37-13.19-37-34.42c0-22,14.54-36.16,37.05-36.16m0-3c-25.6,0-40,17.05-40,39.17S43,110.41,68.13,110.41,108.18,95.12,108.18,73,93.73,33.83,68.13,33.83Z" transform="translate(-8.59 -11.58)"/><line class="cls-9" x1="59.54" y1="88.24" x2="59.54" y2="78.74"/><ellipse class="cls-10" cx="40.04" cy="53.63" rx="6.2" ry="7.02"/><ellipse class="cls-10" cx="79.04" cy="53.63" rx="6.2" ry="7.02"/><ellipse class="cls-6" cx="49.61" cy="75.45" rx="12.57" ry="11.69"/><ellipse class="cls-6" cx="69.47" cy="75.45" rx="12.57" ry="11.69"/><path class="cls-11" d="M68.13,82.93c3,0,5.8-3.14,7.5-5.64a1.83,1.83,0,0,0-1.53-2.86H62.17a1.82,1.82,0,0,0-1.53,2.86C62.33,79.79,65.1,82.93,68.13,82.93Z" transform="translate(-8.59 -11.58)"/><line class="cls-9" x1="51.33" y1="92.07" x2="59.27" y2="88.36"/><line class="cls-9" x1="67.75" y1="92.07" x2="59.33" y2="88.36"/></g></g></svg>